<?xml version="1.0" standalone="no"?>
<!DOCTYPE svg PUBLIC "-//W3C//DTD SVG 20010904//EN"
 "http://www.w3.org/TR/2001/REC-SVG-20010904/DTD/svg10.dtd">
<svg version="1.0" xmlns="http://www.w3.org/2000/svg"
 width="16.000000pt" height="16.000000pt" viewBox="0 0 16.000000 16.000000"
 preserveAspectRatio="xMidYMid meet">
<metadata>
Created by potrace 1.11, written by Peter Selinger 2001-2013
</metadata>
<g transform="translate(0.000000,16.000000) scale(0.006250,-0.006250)"
fill="#000000" stroke="none">
<path d="M0 2404 l0 -155 133 3 132 3 8 -135 c11 -182 10 -180 50 -180 30 0
32 -2 34 -40 l3 -40 -56 0 c-34 0 -53 -4 -49 -10 3 -5 26 -10 50 -10 30 0 45
-5 49 -16 4 -9 4 -20 0 -23 -3 -3 -84 -7 -180 -9 l-174 -3 0 -80 c0 -47 4 -78
9 -74 5 3 12 1 16 -5 3 -5 -1 -10 -9 -10 -14 0 -16 -83 -16 -810 l0 -810 1280
0 1280 0 0 899 0 898 -371 -5 -370 -5 6 29 c12 52 13 54 55 54 29 0 40 4 40
15 0 11 -11 15 -40 15 -38 0 -40 2 -40 30 l0 30 220 0 220 0 0 45 0 45 63 -1
c34 0 56 -3 49 -6 -6 -2 -10 -8 -8 -12 3 -4 0 -27 -5 -52 -10 -44 -11 -45 -52
-48 -60 -3 -72 -21 -15 -21 32 0 48 -5 52 -15 4 -12 25 -15 98 -15 l93 0 1 65
2 65 -45 -5 c-53 -5 -49 9 7 26 39 12 40 13 40 58 0 43 -3 48 -38 67 l-37 22
-18 -24 c-9 -12 -17 -27 -17 -33 0 -15 -44 -24 -72 -15 -13 4 -38 8 -56 9 -18
1 -34 4 -36 6 -2 2 -1 39 1 82 l6 77 51 1 c28 1 62 5 76 10 21 7 -152 6 -275
-1 -62 -4 -71 0 -86 33 -24 54 -88 48 -110 -10 -8 -21 -15 -23 -77 -23 -78 0
-84 4 -131 97 -16 32 -46 77 -68 99 -59 65 -104 74 -357 74 l-211 -1 -52 -38
c-29 -21 -77 -60 -105 -87 -29 -28 -70 -63 -91 -78 -27 -21 -36 -34 -32 -47 7
-21 -10 -27 -18 -6 -4 10 -6 10 -6 0 -1 -18 -58 -16 -65 2 -3 8 -1 15 4 15 6
0 10 -4 10 -8 0 -13 33 -10 47 4 7 7 10 20 7 29 -4 9 1 24 11 35 10 11 13 20
8 20 -6 0 -14 35 -18 80 l-7 80 -399 0 -399 0 0 -156z m690 -28 c0 -3 -4 -8
-10 -11 -5 -3 -10 -1 -10 4 0 6 5 11 10 11 6 0 10 -2 10 -4z m30 -26 c0 -5 -5
-10 -11 -10 -5 0 -7 5 -4 10 3 6 8 10 11 10 2 0 4 -4 4 -10z m118 -99 c3 -8
-1 -12 -9 -9 -7 2 -15 10 -17 17 -3 8 1 12 9 9 7 -2 15 -10 17 -17z m-343 -41
c4 -65 -13 -84 -64 -75 -26 4 -41 3 -41 -3 0 -6 12 -13 28 -15 26 -4 26 -4 5
-12 -15 -5 -27 -21 -35 -46 -14 -50 -43 -53 -52 -6 -4 26 -9 170 -7 200 1 4
38 7 83 5 l81 -3 2 -45z m300 3 c1 -25 -2 -43 -8 -43 -6 0 -2 -10 9 -22 27
-31 44 -73 43 -106 0 -25 -1 -26 -9 -6 -9 22 -30 42 -30 27 1 -25 30 -123 45
-151 9 -18 15 -36 12 -38 -3 -3 -8 4 -12 16 -4 13 -12 19 -21 16 -8 -3 -14 -2
-14 2 0 14 -72 50 -125 63 -27 7 -58 21 -69 31 -11 10 -28 18 -39 18 -16 0
-17 3 -7 15 10 12 10 15 -3 15 -9 0 -19 4 -22 10 -4 6 18 7 59 3 74 -7 87 0
116 56 19 40 12 81 -14 81 -15 0 -36 29 -36 50 0 7 21 10 61 8 l62 -3 2 -42z
m723 -139 c4 -6 25 -21 47 -32 77 -41 112 -87 137 -182 15 -56 17 -59 14 -22
l-4 44 22 -21 c25 -23 50 -96 65 -192 13 -81 35 -127 71 -147 24 -14 27 -20
22 -54 -4 -31 0 -43 16 -58 12 -11 25 -20 30 -20 5 0 19 -11 32 -25 13 -14 25
-23 27 -21 8 7 117 -43 125 -58 5 -9 20 -16 33 -16 13 0 27 -4 30 -10 3 -5 -3
-10 -14 -10 -37 0 -22 -17 29 -36 28 -10 50 -22 50 -26 0 -4 12 -8 28 -9 24 0
25 -1 7 -9 -43 -18 -80 -11 -108 21 -27 31 -65 36 -59 8 3 -11 1 -12 -9 -1 -7
6 -25 12 -40 12 -15 0 -31 5 -34 10 -4 6 10 10 34 10 23 0 41 5 41 11 0 6 -6
9 -12 6 -7 -2 -26 2 -42 10 -15 8 -37 12 -48 10 -12 -3 -22 0 -25 10 -3 8 -13
13 -24 10 -23 -6 -36 11 -15 19 16 6 23 34 8 34 -15 0 -32 -24 -32 -45 0 -12
9 -40 20 -63 11 -22 20 -47 20 -55 0 -19 36 -50 49 -42 7 4 11 -4 11 -19 0
-33 10 -57 21 -50 5 3 9 -2 9 -10 0 -22 -24 -15 -30 9 -8 29 -46 32 -53 3 -4
-13 -1 -26 6 -30 9 -6 8 -11 -4 -21 -19 -14 -35 -57 -21 -57 5 0 7 -12 4 -27
l-5 -28 -9 28 c-6 15 -14 27 -18 27 -5 0 -10 19 -12 43 l-3 42 -19 -70 c-36
-130 -29 -303 19 -460 8 -27 15 -52 15 -54 0 -2 -9 7 -20 20 l-20 24 4 -25
c16 -89 16 -110 0 -110 -14 0 -16 -8 -12 -50 4 -35 2 -50 -6 -47 -6 2 -12 13
-14 25 -3 18 -22 33 -22 17 0 -11 44 -121 53 -133 5 -7 7 -15 3 -19 -7 -7 -6
-9 -32 42 -27 51 -39 96 -62 225 -18 98 -20 101 -21 50 -1 -52 12 -165 25
-216 5 -18 2 -24 -9 -24 -21 0 -25 17 -32 160 -3 69 -8 142 -11 163 -10 68
-24 38 -25 -55 -2 -116 -13 -238 -21 -218 -21 59 -28 96 -28 161 0 41 -5 92
-10 114 -12 52 8 222 41 350 6 22 16 83 23 135 10 82 14 95 30 93 17 -1 18 6
12 130 -4 73 -9 190 -12 262 -6 141 -14 180 -14 69 -1 -157 -61 -278 -185
-371 -59 -44 -84 -47 -109 -16 -26 34 -39 73 -23 73 7 0 18 15 26 33 8 17 27
44 43 60 l28 27 40 -25 40 -25 0 32 c-1 24 -10 42 -35 67 -19 19 -33 36 -31
38 9 9 39 -12 47 -34 9 -24 9 -24 30 -4 22 20 19 41 -6 41 -7 0 -17 9 -20 20
-4 11 -18 34 -32 51 -20 23 -28 27 -34 17 -7 -10 -9 -10 -9 0 0 7 -14 12 -35
12 -37 0 -44 -10 -20 -30 8 -7 15 -18 15 -26 0 -7 6 -17 13 -21 11 -7 40 -73
34 -79 -1 -1 -23 -5 -49 -9 -40 -6 -48 -5 -48 8 0 9 4 18 9 21 5 3 11 20 13
36 l5 31 -21 -25 c-19 -23 -24 -25 -46 -13 -19 10 -25 21 -27 52 -1 22 -8 88
-14 147 -13 116 -7 141 31 131 19 -5 26 -31 21 -71 -1 -7 2 -12 6 -11 4 1 30
-8 56 -20 62 -29 90 -22 125 29 15 22 32 39 39 40 18 0 26 19 14 34 -6 7 -8
16 -4 20 4 3 -3 15 -15 26 -11 11 -25 27 -30 36 -9 16 -17 16 -86 4 -58 -10
-80 -10 -88 -2 -7 7 -29 12 -50 12 -38 0 -38 0 -38 40 0 33 -3 40 -20 40 -11
0 -20 5 -20 11 0 6 -7 17 -15 25 -24 25 -18 42 18 47 62 9 228 2 235 -9z m865
-1 c-13 -2 -33 -2 -45 0 -13 2 -3 4 22 4 25 0 35 -2 23 -4z m-1103 -138 c0
-19 -5 -25 -22 -25 -13 0 -18 4 -12 8 6 4 13 15 17 25 9 25 17 21 17 -8z
m-601 -4 c10 -6 2 -8 -23 -6 -21 2 -41 6 -44 9 -9 10 52 6 67 -3z m-509 -204
c0 -32 0 -32 -50 -32 -43 0 -50 3 -50 20 -1 16 -4 13 -15 -10 l-13 -30 -1 43
-1 42 65 0 65 0 0 -33z m2058 -94 c-10 -2 -26 -2 -35 0 -10 3 -2 5 17 5 19 0
27 -2 18 -5z m-307 -32 c6 10 9 4 9 -20 0 -19 -3 -31 -7 -28 -3 4 -14 0 -23
-8 -15 -14 -16 -12 -13 18 6 48 15 67 21 43 3 -15 6 -16 13 -5z m367 -12 c65
-4 30 -18 -53 -21 -70 -2 -85 0 -85 12 0 15 8 15 138 9z m-358 -59 c0 -5 -5
-10 -11 -10 -5 0 -7 5 -4 10 3 6 8 10 11 10 2 0 4 -4 4 -10z m-183 -142 c-3
-7 -5 -2 -5 12 0 14 2 19 5 13 2 -7 2 -19 0 -25z m363 -295 c-1 -27 -1 -27
-15 -9 -19 25 -19 36 0 36 10 0 15 -10 15 -27z m17 -65 c-3 -8 -6 -5 -6 6 -1
11 2 17 5 13 3 -3 4 -12 1 -19z m-86 -99 c-5 -13 -10 -19 -10 -12 -1 15 10 45
15 40 3 -2 0 -15 -5 -28z m88 -27 c1 -7 -3 -10 -9 -7 -5 3 -10 18 -9 33 0 24
1 25 9 7 5 -11 9 -26 9 -33z m-62 -39 c-3 -10 -5 -4 -5 12 0 17 2 24 5 18 2
-7 2 -21 0 -30z m50 -165 c-3 -7 -5 -2 -5 12 0 14 2 19 5 13 2 -7 2 -19 0 -25z
m-67 -67 c0 -6 -4 -13 -10 -16 -5 -3 -10 1 -10 9 0 9 5 16 10 16 6 0 10 -4 10
-9z m-1006 -76 c-4 -8 -8 -15 -10 -15 -2 0 -4 7 -4 15 0 8 4 15 10 15 5 0 7
-7 4 -15z m115 -225 c0 -9 -4 -8 -9 5 -5 11 -9 27 -9 35 0 9 4 8 9 -5 5 -11 9
-27 9 -35z"/>
<path d="M1910 1370 c0 -6 7 -13 15 -17 24 -9 27 1 5 15 -13 8 -20 8 -20 2z"/>
<path d="M2005 1310 c-8 -13 15 -24 27 -12 6 6 4 11 -6 15 -8 3 -18 2 -21 -3z"/>
<path d="M1781 814 c0 -11 3 -14 6 -6 3 7 2 16 -1 19 -3 4 -6 -2 -5 -13z"/>
<path d="M1822 675 c0 -152 -1 -156 -13 -130 -6 13 -7 -7 -3 -60 3 -44 11 -89
17 -100 10 -17 12 -13 20 35 8 54 4 175 -12 315 -8 63 -9 58 -9 -60z"/>
<path d="M1761 655 c0 -38 4 -77 9 -85 12 -19 12 106 0 135 -6 14 -9 -2 -9
-50z"/>
<path d="M810 2520 c0 -22 5 -40 10 -40 6 0 10 18 10 40 0 22 -4 40 -10 40 -5
0 -10 -18 -10 -40z"/>
<path d="M810 2354 c0 -8 5 -12 10 -9 6 3 10 10 10 16 0 5 -4 9 -10 9 -5 0
-10 -7 -10 -16z"/>
<path d="M2350 2190 c0 -5 5 -10 10 -10 6 0 10 5 10 10 0 6 -4 10 -10 10 -5 0
-10 -4 -10 -10z"/>
<path d="M2358 2153 c12 -2 32 -2 45 0 12 2 2 4 -23 4 -25 0 -35 -2 -22 -4z"/>
<path d="M2043 1898 c-10 -18 11 -25 71 -25 45 0 70 5 87 18 24 18 23 18 -64
16 -49 -1 -91 -5 -94 -9z"/>
</g>
</svg>
